<svg width="1280" height="720" xmlns="http://www.w3.org/2000/svg" xmlns:xlink="http://www.w3.org/1999/xlink" overflow="hidden"><defs><clipPath id="clip0"><rect x="0" y="0" width="1280" height="720"/></clipPath></defs><g clip-path="url(#clip0)"><rect x="0" y="0" width="1280" height="720" fill="#FFFFFF"/><path d="M548.5 186C548.5 145.959 589.69 113.5 640.5 113.5 691.31 113.5 732.5 145.959 732.5 186 732.5 226.041 691.31 258.5 640.5 258.5 589.69 258.5 548.5 226.041 548.5 186Z" stroke="#A9D18E" stroke-width="1.33333" stroke-miterlimit="8" fill="#E2F0D9" fill-rule="evenodd"/><text font-family="Times New Roman,Times New Roman_MSFontService,sans-serif" font-weight="400" font-size="24" transform="translate(606 180)">Flower<tspan font-size="24" x="-4" y="29">Height?</tspan></text><path d="M365.5 360.5C365.5 320.183 406.466 287.5 457 287.5 507.534 287.5 548.5 320.183 548.5 360.5 548.5 400.817 507.534 433.5 457 433.5 406.466 433.5 365.5 400.817 365.5 360.5Z" stroke="#A9D18E" stroke-width="1.33333" stroke-miterlimit="8" fill="#E2F0D9" fill-rule="evenodd"/><text font-family="Times New Roman,Times New Roman_MSFontService,sans-serif" font-weight="400" font-size="24" transform="translate(413.907 369)">Flower<tspan font-size="24" x="74" y="0">1</tspan></text><path d="M732.5 360.5C732.5 320.183 773.466 287.5 824 287.5 874.534 287.5 915.5 320.183 915.5 360.5 915.5 400.817 874.534 433.5 824 433.5 773.466 433.5 732.5 400.817 732.5 360.5Z" stroke="#A9D18E" stroke-width="1.33333" stroke-miterlimit="8" fill="#E2F0D9" fill-rule="evenodd"/><text font-family="Times New Roman,Times New Roman_MSFontService,sans-serif" font-weight="400" font-size="24" transform="translate(783.759 369)">Season?</text><path d="M554.5 535C554.5 494.959 595.466 462.5 646 462.5 696.534 462.5 737.5 494.959 737.5 535 737.5 575.041 696.534 607.5 646 607.5 595.466 607.5 554.5 575.041 554.5 535Z" stroke="#A9D18E" stroke-width="1.33333" stroke-miterlimit="8" fill="#E2F0D9" fill-rule="evenodd"/><text font-family="Times New Roman,Times New Roman_MSFontService,sans-serif" font-weight="400" font-size="24" transform="translate(602.427 543)">Flower 3</text><path d="M920.5 535C920.5 494.959 961.466 462.5 1012 462.5 1062.53 462.5 1103.5 494.959 1103.5 535 1103.5 575.041 1062.53 607.5 1012 607.5 961.466 607.5 920.5 575.041 920.5 535Z" stroke="#A9D18E" stroke-width="1.33333" stroke-miterlimit="8" fill="#E2F0D9" fill-rule="evenodd"/><text font-family="Times New Roman,Times New Roman_MSFontService,sans-serif" font-weight="400" font-size="24" transform="translate(968.613 543)">Flower 2</text><path d="M0 0 118.36 50.2543" stroke="#A9D18E" stroke-width="0.666667" stroke-miterlimit="8" fill="none" fill-rule="evenodd" transform="matrix(-1 0 0 1 640.86 258.5)"/><path d="M640.5 258.5 758.86 308.754" stroke="#A9D18E" stroke-width="0.666667" stroke-miterlimit="8" fill="none" fill-rule="evenodd"/><text font-family="Times New Roman,Times New Roman_MSFontService,sans-serif" font-weight="400" font-size="16" transform="matrix(0.92004 -0.391825 0.391825 0.92004 521.892 292)">Really<tspan font-size="16" x="45.748" y="-0.0812759">Tal</tspan><tspan font-size="16" x="66.1337" y="-0.094698">l</tspan></text><text font-family="Times New Roman,Times New Roman_MSFontService,sans-serif" font-weight="400" font-size="16" transform="matrix(0.909534 0.415629 -0.415629 0.909534 686.665 263)">Really<tspan font-size="16" x="45.9506" y="-0.108179">Smal</tspan><tspan font-size="16" x="78.6531" y="-0.759157">l</tspan></text><path d="M0 0 112.932 50.2543" stroke="#A9D18E" stroke-width="0.666667" stroke-miterlimit="8" fill="none" fill-rule="evenodd" transform="matrix(-1 0 0 1 823.433 433.5)"/><path d="M823.5 433.5 947.287 483.754" stroke="#A9D18E" stroke-width="0.666667" stroke-miterlimit="8" fill="none" fill-rule="evenodd"/><text font-family="Times New Roman,Times New Roman_MSFontService,sans-serif" font-weight="400" font-size="16" transform="matrix(0.908142 -0.418663 0.418663 0.908142 719.259 468)">Summer</text><text font-family="Times New Roman,Times New Roman_MSFontService,sans-serif" font-weight="400" font-size="16" transform="matrix(0.897482 0.441052 -0.441052 0.897482 873.527 444)">Winter</text></g></svg>