<svg width="1280" height="720" xmlns="http://www.w3.org/2000/svg" xmlns:xlink="http://www.w3.org/1999/xlink" overflow="hidden"><defs><clipPath id="clip0"><rect x="0" y="0" width="1280" height="720"/></clipPath></defs><g clip-path="url(#clip0)"><rect x="0" y="0" width="1280" height="720" fill="#FFFFFF"/><path d="M548.5 186C548.5 145.959 589.69 113.5 640.5 113.5 691.31 113.5 732.5 145.959 732.5 186 732.5 226.041 691.31 258.5 640.5 258.5 589.69 258.5 548.5 226.041 548.5 186Z" stroke="#A9D18E" stroke-width="1.33333" stroke-miterlimit="8" fill="#E2F0D9" fill-rule="evenodd"/><text font-family="Times New Roman,Times New Roman_MSFontService,sans-serif" font-weight="400" font-size="21" transform="translate(595.043 194)">Tree Node</text><path d="M549.345 186.108 537.533 186.108 526.032 186.108 515.343 186.046 515.345 186.046 505.72 186.046 501.468 186.046 497.59 185.983 497.595 185.983 494.22 185.983 491.345 185.983 489.027 185.983 487.333 185.921 487.345 185.921 486.283 185.921 485.908 185.921 485.533 185.921 484.464 185.921 482.77 185.858 482.783 185.858 480.47 185.858 477.595 185.858 474.22 185.858 470.345 185.858 466.094 185.858 456.468 185.796 456.47 185.796 445.72 185.796 434.283 185.796 429.137 185.796 429.137 185.129 434.283 185.129 445.72 185.129 456.471 185.129 466.097 185.192 466.095 185.192 470.345 185.192 474.22 185.192 477.595 185.192 480.47 185.192 482.789 185.192 484.483 185.254 484.47 185.254 485.533 185.254 485.908 185.254 486.283 185.254 487.351 185.254 489.045 185.317 489.033 185.317 491.345 185.317 494.22 185.317 497.598 185.317 501.476 185.379 501.47 185.379 505.72 185.379 515.346 185.379 526.035 185.442 526.033 185.442 537.533 185.442 549.345 185.442ZM430.47 189.462 422.47 185.462 430.47 181.462Z" fill="#70AD47"/><path d="M0-0.333333 11.251-0.333333 22.1894-0.270828 32.377-0.208327 41.5037-0.145816 45.5676-0.0832939 45.5625-0.0833333 49.1908-0.0833333 52.3815-0.0207693 55.1335 0.0417748 57.322 0.104303 57.3125 0.104167 58.9479 0.104167 59.9754 0.168385 60.3673 0.233702 60.7423 0.296202 60.6875 0.291667 61.6939 0.291667 63.3253 0.354413 63.322 0.354303 65.5095 0.416803 65.5076 0.416753 68.2576 0.479253 68.25 0.479167 71.4404 0.479167 75.0682 0.541716 79.1301 0.604206 79.1273 0.604174 88.2523 0.666674 88.25 0.666667 98.4384 0.666667 109.377 0.729172 109.375 0.729167 113.958 0.729167 113.958 1.39583 109.374 1.39583 98.4356 1.33333 98.4375 1.33333 88.2489 1.33333 79.1213 1.27082 75.0567 1.20828 71.4317 1.14578 71.4375 1.14583 68.2462 1.14583 65.4915 1.08323 63.3013 1.02065 61.6747 0.958087 61.6875 0.958333 60.6599 0.958333 60.2577 0.891298 59.8827 0.828798 59.9167 0.832684 58.9167 0.770184 58.9375 0.770833 57.3077 0.770833 55.1155 0.708197 55.1174 0.708247 52.3685 0.645769 49.181 0.583269 49.1875 0.583333 45.5599 0.583333 41.4949 0.520794 41.4977 0.520826 32.373 0.458327 22.1856 0.395828 11.2481 0.333328 11.25 0.333333 0 0.333333ZM112.625-2.9375 120.625 1.0625 112.625 5.0625Z" fill="#70AD47" transform="matrix(1 0 0 -1 732.5 186.517)"/><path d="M576.151 237.524 575.649 244.486 574.139 251.343 571.688 258.132 568.358 264.791 564.215 271.195 559.383 277.281 553.863 283.115 547.78 288.508 541.133 293.525 534.048 297.976 526.588 301.926 518.75 305.312 510.659 308.009 502.381 309.953 493.914 311.207 492.118 311.3 492.084 310.634 493.864 310.542 493.832 310.545 502.27 309.295 502.242 309.301 510.492 307.363 510.463 307.371 518.526 304.684 518.499 304.694 526.311 301.319 526.288 301.33 533.725 297.393 533.704 297.405 540.766 292.968 540.743 292.984 547.368 287.984 547.347 288.001 553.41 282.626 553.389 282.646 558.889 276.833 558.87 276.855 563.682 270.793 563.664 270.819 567.789 264.444 567.77 264.476 571.083 257.851 571.067 257.887 573.505 251.137 573.493 251.178 574.993 244.366 574.986 244.414 575.486 237.476ZM493.64 314.893 485.443 311.313 493.226 306.904Z" fill="#70AD47"/><path d="M0.0299089-0.331989 6.99716 0.295691 13.8613 2.1849 20.6544 5.14115 27.3156 9.22587 33.7194 14.2485 39.8047 20.1456 45.6364 26.8551 51.0271 34.3143 56.0403 42.3981 60.4891 51.0451 64.4355 60.1909 67.8183 69.7754 70.5124 79.612 72.4545 89.7609 73.7075 100.035 73.863 103.7 73.1969 103.728 73.042 100.077 73.0441 100.103 71.7941 89.8529 71.7976 89.8751 69.8601 79.7501 69.866 79.7756 67.1785 69.9631 67.1857 69.9859 63.8107 60.4234 63.8189 60.4446 59.8814 51.3196 59.8911 51.34 55.4536 42.715 55.4667 42.7382 50.4667 34.6757 50.4798 34.6952 45.1048 27.2577 45.1234 27.2812 39.3109 20.5937 39.3305 20.6144 33.268 14.7394 33.2943 14.7623 26.9193 9.76228 26.9507 9.78416 20.3257 5.72166 20.367 5.74314 13.617 2.80564 13.6615 2.82138 6.84905 0.946383 6.90759 0.956989-0.0299089 0.331989ZM77.4698 102.213 73.8125 110.375 69.477 102.552Z" fill="#70AD47" transform="matrix(1.83697e-16 1 1 -1.83697e-16 705.5 237.5)"/><path d="M0.0269386-0.332243 6.99139 0.232443 13.8522 1.93191 20.6433 4.63577 27.3027 8.34241 33.7073 12.8633 39.7938 18.2596 45.6262 24.3429 51.0187 31.1149 56.0333 38.5114 60.4834 46.3461 64.4312 54.6803 67.8153 63.3286 70.5108 72.2925 72.4537 81.5059 73.7073 90.845 73.8347 93.575 73.1688 93.6061 73.042 90.8905 73.0446 90.9193 71.7946 81.6068 71.7988 81.6313 69.8613 72.4438 69.8683 72.471 67.1808 63.5335 67.1896 63.559 63.8146 54.934 63.8237 54.9552 59.8862 46.6427 59.8977 46.6646 55.4602 38.8521 55.4741 38.8746 50.4741 31.4996 50.4892 31.5201 45.1142 24.7701 45.1344 24.7932 39.3219 18.7307 39.3414 18.7494 33.2789 13.3744 33.3078 13.3973 26.9328 8.89732 26.9629 8.91625 20.3379 5.22876 20.3767 5.24719 13.6267 2.55969 13.6699 2.57355 6.85735 0.886055 6.91056 0.894743-0.0269386 0.332243ZM77.4352 92.0722 73.8125 100.25 69.4439 92.4452Z" fill="#70AD47" transform="matrix(-1.83697e-16 -1 -1 1.83697e-16 575.715 134.259)"/><path d="M705.168 134.23 705.796 127.262 707.685 120.398 710.641 113.605 714.726 106.944 719.749 100.54 725.646 94.4548 732.355 88.6231 739.814 83.2325 747.898 78.2192 756.545 73.7704 765.691 69.824 775.275 66.4412 785.112 63.7471 795.261 61.805 805.535 60.552 809.2 60.3966 809.229 61.0626 805.577 61.2176 805.603 61.2154 795.353 62.4654 795.375 62.4619 785.25 64.3994 785.276 64.3935 775.463 67.081 775.486 67.0739 765.924 70.4489 765.945 70.4406 756.82 74.3781 756.84 74.3684 748.215 78.8059 748.238 78.7928 740.176 83.7928 740.195 83.7797 732.758 89.1547 732.781 89.1361 726.094 94.9486 726.114 94.929 720.239 100.991 720.262 100.965 715.262 107.34 715.284 107.309 711.222 113.934 711.243 113.893 708.306 120.643 708.321 120.598 706.446 127.41 706.457 127.352 705.832 134.289ZM807.713 56.7897 815.875 60.447 808.052 64.7825Z" fill="#70AD47"/><text font-family="Times New Roman,Times New Roman_MSFontService,sans-serif" font-weight="400" font-size="19" transform="translate(385.105 65)">Feature<tspan font-size="19" x="-148.701" y="118">Category</tspan><tspan font-size="19" x="-75.5342" y="118">Connecting </tspan><tspan font-size="19" x="-148.701" y="140">this Node to the </tspan><tspan font-size="19" x="-148.701" y="163">Previous Node</tspan><tspan font-size="19" x="-34.9689" y="280">Current Learning Set of </tspan><tspan font-size="19" x="-34.9689" y="302">Data</tspan><tspan font-size="19" x="453.686" y="257">A Temporary </tspan><tspan font-size="19" x="453.686" y="279">Discretized Version of </tspan><tspan font-size="19" x="453.686" y="302">the Current Learning Set</tspan><tspan font-size="19" x="476.618" y="104">Pointers</tspan><tspan font-size="19" x="542.452" y="104">to</tspan><tspan font-size="19" x="561.618" y="104">Child</tspan><tspan font-size="19" x="607.785" y="104">Nodes</tspan><tspan font-size="19" x="453.686" y="-8">A</tspan><tspan font-size="19" x="470.826" y="-8">Decision</tspan><tspan font-size="19" x="541.992" y="-8">(if Any)</tspan></text></g></svg>